<mxfile host="app.diagrams.net" modified="2021-10-31T04:55:29.588Z" agent="5.0 (Macintosh; Intel Mac OS X 10_15_7) AppleWebKit/537.36 (KHTML, like Gecko) Chrome/95.0.4638.54 Safari/537.36" etag="sd8TIyr4vv-Kqeji0oIj" version="15.6.2" type="github">
  <diagram id="3W9iMAQyPo1SDYzPn6rt" name="第 1 页">
    <mxGraphModel dx="821" dy="719" grid="1" gridSize="10" guides="1" tooltips="1" connect="1" arrows="1" fold="1" page="1" pageScale="1" pageWidth="827" pageHeight="1169" math="0" shadow="0">
      <root>
        <mxCell id="0" />
        <mxCell id="1" parent="0" />
        <mxCell id="NwSdPecyLmh7UXYeetp5-1" value="Server" style="rounded=1;whiteSpace=wrap;html=1;absoluteArcSize=1;arcSize=14;strokeWidth=2;" vertex="1" parent="1">
          <mxGeometry x="110" y="300" width="90" height="50" as="geometry" />
        </mxCell>
        <mxCell id="NwSdPecyLmh7UXYeetp5-2" value="Client" style="rounded=1;whiteSpace=wrap;html=1;absoluteArcSize=1;arcSize=14;strokeWidth=2;" vertex="1" parent="1">
          <mxGeometry x="470" y="300" width="90" height="50" as="geometry" />
        </mxCell>
        <mxCell id="NwSdPecyLmh7UXYeetp5-6" value="" style="curved=1;endArrow=classic;html=1;rounded=0;exitX=0.5;exitY=0;exitDx=0;exitDy=0;entryX=0.5;entryY=0;entryDx=0;entryDy=0;" edge="1" parent="1" source="NwSdPecyLmh7UXYeetp5-2" target="NwSdPecyLmh7UXYeetp5-1">
          <mxGeometry width="50" height="50" relative="1" as="geometry">
            <mxPoint x="390" y="390" as="sourcePoint" />
            <mxPoint x="440" y="340" as="targetPoint" />
            <Array as="points">
              <mxPoint x="390" y="270" />
              <mxPoint x="280" y="260" />
            </Array>
          </mxGeometry>
        </mxCell>
        <mxCell id="NwSdPecyLmh7UXYeetp5-7" value="1. Send a request" style="edgeLabel;html=1;align=center;verticalAlign=middle;resizable=0;points=[];" vertex="1" connectable="0" parent="NwSdPecyLmh7UXYeetp5-6">
          <mxGeometry x="0.1957" y="6" relative="1" as="geometry">
            <mxPoint x="23" y="-8" as="offset" />
          </mxGeometry>
        </mxCell>
        <mxCell id="NwSdPecyLmh7UXYeetp5-10" value="" style="curved=1;endArrow=classic;html=1;rounded=0;exitX=0.5;exitY=1;exitDx=0;exitDy=0;entryX=0.5;entryY=1;entryDx=0;entryDy=0;" edge="1" parent="1" source="NwSdPecyLmh7UXYeetp5-1" target="NwSdPecyLmh7UXYeetp5-2">
          <mxGeometry width="50" height="50" relative="1" as="geometry">
            <mxPoint x="390" y="390" as="sourcePoint" />
            <mxPoint x="440" y="340" as="targetPoint" />
            <Array as="points">
              <mxPoint x="400" y="370" />
            </Array>
          </mxGeometry>
        </mxCell>
        <mxCell id="NwSdPecyLmh7UXYeetp5-11" value="2. Send a response" style="edgeLabel;html=1;align=center;verticalAlign=middle;resizable=0;points=[];" vertex="1" connectable="0" parent="NwSdPecyLmh7UXYeetp5-10">
          <mxGeometry x="-0.043" y="1" relative="1" as="geometry">
            <mxPoint y="-3" as="offset" />
          </mxGeometry>
        </mxCell>
      </root>
    </mxGraphModel>
  </diagram>
</mxfile>
